<svg width="43" height="33" viewBox="0 0 43 33" fill="none" xmlns="http://www.w3.org/2000/svg">
<path d="M38.0351 5.88571H37.1143V4.96491C37.1143 2.79721 35.3508 1.03372 33.1831 1.03372H4.96506C2.79737 1.03372 1.03387 2.79728 1.03387 4.96491V23.4345C1.03387 25.6022 2.79743 27.3657 4.96506 27.3657H5.88586V28.2865C5.88586 30.4542 7.64942 32.2177 9.81705 32.2177H38.035C40.2027 32.2177 41.9663 30.4542 41.9663 28.2865V9.8169C41.9662 7.6492 40.2028 5.88571 38.0351 5.88571ZM39.0695 28.2865C39.0695 28.8578 38.6064 29.321 38.0351 29.321H9.81705C9.24569 29.321 8.78252 28.8578 8.78252 28.2865V27.3657V25.9173V24.469V9.8169C8.78252 9.24547 9.24569 8.78237 9.81705 8.78237H34.2176H35.6659H37.1143H38.0351C38.6064 8.78237 39.0696 9.24554 39.0696 9.8169V28.2865H39.0695ZM3.93054 23.4345V4.96491C3.93054 4.39356 4.39371 3.93039 4.96506 3.93039H33.1831C33.7544 3.93039 34.2176 4.39356 34.2176 4.96491V5.88571H9.81705C7.64942 5.88571 5.88586 7.64926 5.88586 9.8169V24.469H4.96513C4.39371 24.469 3.93054 24.0058 3.93054 23.4345Z" fill="#4B50AC" stroke="white"/>
<path d="M38.0349 32.2515H9.81691C7.63062 32.2515 5.85192 30.4728 5.85192 28.2865V27.3996H4.965C2.7787 27.3996 1 25.6209 1 23.4346V4.965C1 2.77871 2.7787 1 4.965 1H33.1831C35.3693 1 37.148 2.77871 37.148 4.965V5.85198H38.0351C40.2213 5.85198 42 7.63069 42 9.81698V28.2865C41.9999 30.4728 40.2213 32.2515 38.0349 32.2515ZM4.965 1.06755C2.81596 1.06755 1.06762 2.81596 1.06762 4.965V23.4346C1.06762 25.5836 2.81596 27.332 4.965 27.332H5.9196V28.2866C5.9196 30.4356 7.66794 32.184 9.81698 32.184H38.0349C40.184 32.184 41.9324 30.4356 41.9324 28.2866V9.81698C41.9324 7.66795 40.1841 5.9196 38.0351 5.9196H37.0804V4.965C37.0804 2.81596 35.3321 1.06762 33.1831 1.06762H4.965V1.06755ZM38.0351 29.3549H9.81698C9.22791 29.3549 8.74865 28.8756 8.74865 28.2865V9.81698C8.74865 9.22791 9.22791 8.74865 9.81698 8.74865H38.0351C38.6241 8.74865 39.1033 9.22791 39.1033 9.81698V28.2865C39.1033 28.8756 38.6241 29.3549 38.0351 29.3549ZM9.81698 8.81627C9.26517 8.81627 8.81627 9.26524 8.81627 9.81698V28.2865C8.81627 28.8384 9.26517 29.2873 9.81698 29.2873H38.0351C38.5868 29.2873 39.0357 28.8384 39.0357 28.2865V9.81698C39.0357 9.26517 38.5868 8.81627 38.0351 8.81627H9.81698ZM5.9196 24.5029H4.96507C4.376 24.5029 3.89667 24.0236 3.89667 23.4346V4.965C3.89667 4.37593 4.37593 3.89667 4.965 3.89667H33.1831C33.7722 3.89667 34.2513 4.37593 34.2513 4.965V5.9196H9.81698C7.66794 5.9196 5.9196 7.66795 5.9196 9.81698V24.5029V24.5029ZM4.965 3.96421C4.41318 3.96421 3.96428 4.41312 3.96428 4.96493V23.4346C3.96428 23.9863 4.41325 24.4353 4.96507 24.4353H5.85205V9.81698C5.85205 7.63069 7.63076 5.85198 9.81705 5.85198H34.1838V4.965C34.1838 4.41318 33.7349 3.96428 33.1832 3.96428H4.965V3.96421Z" fill="#4B50AC" stroke="white"/>
<path d="M34.9455 25.0315L33.9924 24.0783L29.3774 19.4634C28.9734 19.0593 28.3184 19.0593 27.9144 19.4634L25.2921 22.0857L20.3933 17.1868C19.9892 16.7827 19.3342 16.7827 18.9302 17.1868L11.6481 24.469L11.0855 25.0315C10.8441 25.2729 10.7471 25.6038 10.7941 25.9173C10.8258 26.1285 10.9228 26.3319 11.0855 26.4946L11.6708 27.0798C11.825 27.234 12.0159 27.3291 12.2154 27.3656C12.3389 27.3882 12.4657 27.3882 12.5892 27.3656C12.7887 27.3292 12.9796 27.2341 13.1338 27.0798L14.2963 25.9173L15.7446 24.469L18.9302 21.2834C19.3342 20.8793 19.9892 20.8793 20.3932 21.2834L23.5787 24.469L25.027 25.9173L26.1896 27.0798C26.3438 27.234 26.5347 27.3291 26.7342 27.3656C26.8577 27.3882 26.9845 27.3882 27.1079 27.3656C27.3075 27.3292 27.4983 27.2341 27.6526 27.0798L28.2378 26.4946C28.4004 26.3319 28.4975 26.1285 28.5292 25.9173C28.5762 25.6038 28.4793 25.2729 28.2378 25.0315L27.6753 24.469L27.3404 24.134L28.6458 22.8284L30.2865 24.469L31.7348 25.9173L32.8972 27.0798C33.043 27.2255 33.2215 27.3184 33.409 27.359C33.6548 27.4122 33.916 27.3751 34.14 27.2477C34.2189 27.2028 34.2931 27.147 34.3603 27.0798L34.9455 26.4946C35.3249 26.1153 35.348 25.5147 35.0151 25.1083C34.9933 25.0819 34.9702 25.0562 34.9455 25.0315Z" fill="#4B50AC" stroke="white"/>
<path d="M26.9212 27.4166C26.8566 27.4166 26.7917 27.4106 26.7282 27.399C26.5143 27.36 26.3198 27.2579 26.1658 27.1038L20.3693 21.3074C20.1804 21.1183 19.929 21.0143 19.6617 21.0143C19.3945 21.0143 19.1431 21.1183 18.9541 21.3074L13.1578 27.1038C13.0038 27.2579 12.8093 27.36 12.5953 27.399C12.4684 27.4222 12.3364 27.4222 12.2094 27.399C11.9954 27.36 11.801 27.2579 11.647 27.1038L11.0617 26.5186C10.8989 26.3559 10.7949 26.1498 10.7607 25.9225C10.7106 25.5884 10.8231 25.2464 11.0617 25.0078L18.9064 17.1631C19.1082 16.9614 19.3765 16.8502 19.6618 16.8502C19.9471 16.8502 20.2154 16.9614 20.4172 17.1631L25.2922 22.0381L27.8907 19.4397C28.0924 19.2379 28.3607 19.1268 28.6461 19.1268C28.9315 19.1268 29.1997 19.2379 29.4015 19.4397L34.9695 25.0078C34.9941 25.0324 35.0183 25.0591 35.0413 25.0869C35.3906 25.5132 35.3597 26.1286 34.9695 26.5187L34.3844 27.1039C34.3169 27.1714 34.2403 27.2297 34.1569 27.2772C33.9969 27.3683 33.8144 27.4165 33.6292 27.4165C33.6292 27.4165 33.6292 27.4165 33.6292 27.4165C33.5529 27.4165 33.4765 27.4084 33.4021 27.3922C33.2016 27.3489 33.0188 27.2492 32.8735 27.1039L28.6461 22.8765L27.3884 24.1343L28.262 25.0079C28.5005 25.2464 28.6129 25.5884 28.5628 25.9226C28.5288 26.1497 28.4248 26.3558 28.262 26.5187L27.6767 27.1039C27.5227 27.2579 27.3282 27.36 27.1143 27.3991C27.0507 27.4106 26.9858 27.4166 26.9212 27.4166ZM19.6618 20.9467C19.9471 20.9467 20.2154 21.0578 20.4172 21.2596L26.2137 27.056C26.3579 27.2003 26.5401 27.2959 26.7405 27.3325C26.8593 27.3543 26.9832 27.3543 27.1021 27.3325C27.3024 27.2959 27.4846 27.2003 27.6289 27.056L28.2141 26.4708C28.3665 26.3183 28.464 26.1252 28.496 25.9124C28.5429 25.5993 28.4375 25.279 28.2141 25.0555L27.2927 24.1341L28.646 22.7807L32.9213 27.056C33.0575 27.1921 33.2286 27.2855 33.4164 27.3261C33.6556 27.3777 33.9119 27.3388 34.1235 27.2184C34.2017 27.1739 34.2734 27.1192 34.3366 27.056L34.9217 26.4708C35.2871 26.1055 35.316 25.5289 34.9891 25.1298C34.9675 25.1037 34.9448 25.0787 34.9217 25.0555L29.3537 19.4874C29.1647 19.2984 28.9134 19.1943 28.6461 19.1943C28.3788 19.1943 28.1275 19.2984 27.9385 19.4874L25.2922 22.1337L20.3694 17.2109C20.1804 17.0218 19.9291 16.9178 19.6618 16.9178C19.3945 16.9178 19.1433 17.0218 18.9542 17.2109L11.1095 25.0555C10.8861 25.279 10.7807 25.5994 10.8277 25.9124C10.8596 26.1253 10.9571 26.3184 11.1095 26.4708L11.6948 27.056C11.8391 27.2003 12.0213 27.2959 12.2216 27.3325C12.3406 27.3543 12.4644 27.3543 12.5833 27.3325C12.7836 27.2959 12.9659 27.2003 13.1101 27.056L18.9065 21.2596C19.1082 21.0578 19.3765 20.9467 19.6618 20.9467Z" fill="#4B50AC" stroke="white"/>
<path d="M34.2176 10.5935C33.7665 10.4162 33.2755 10.3188 32.7623 10.3188C30.5614 10.3188 28.7708 12.1094 28.7708 14.3103C28.7708 16.5112 30.5614 18.3018 32.7623 18.3018C33.2755 18.3018 33.7666 18.2043 34.2176 18.027C34.7713 17.8095 35.2647 17.4716 35.666 17.0459C36.34 16.331 36.7538 15.3681 36.7538 14.3103C36.7538 13.2525 36.34 12.2896 35.666 11.5746C35.2647 11.1489 34.7712 10.811 34.2176 10.5935ZM32.7621 15.4051C32.1576 15.4051 31.6673 14.9149 31.6673 14.3103C31.6673 13.7056 32.1576 13.2155 32.7621 13.2155C33.3668 13.2155 33.857 13.7057 33.857 14.3103C33.8571 14.9149 33.3669 15.4051 32.7621 15.4051Z" fill="#4B50AC" stroke="white"/>
<path d="M32.7622 18.3353C30.5426 18.3353 28.7368 16.5295 28.7368 14.31C28.7368 12.0904 30.5426 10.2847 32.7622 10.2847C33.2681 10.2847 33.762 10.3779 34.2299 10.5618C34.7785 10.7773 35.2836 11.1195 35.6905 11.5511C36.3979 12.3015 36.7875 13.2813 36.7875 14.31C36.7875 15.3387 36.3979 16.3184 35.6905 17.0688C35.2838 17.5004 34.7787 17.8425 34.2299 18.0583C33.7621 18.242 33.2683 18.3353 32.7622 18.3353ZM32.7622 10.3523C30.5799 10.3523 28.8045 12.1277 28.8045 14.31C28.8045 16.4923 30.5799 18.2677 32.7622 18.2677C33.2597 18.2677 33.7452 18.1761 34.2052 17.9952C34.7447 17.7832 35.2413 17.4469 35.6412 17.0225C36.3368 16.2846 36.7199 15.3214 36.7199 14.31C36.7199 13.2986 36.3368 12.3353 35.6412 11.5975C35.2412 11.1731 34.7446 10.8367 34.2052 10.6247C33.7452 10.444 33.2597 10.3523 32.7622 10.3523ZM32.7621 15.4387C32.1398 15.4387 31.6335 14.9324 31.6335 14.31C31.6335 13.6877 32.1398 13.1815 32.7621 13.1815C33.3845 13.1815 33.8908 13.6878 33.8908 14.31C33.8909 14.9324 33.3845 15.4387 32.7621 15.4387ZM32.7621 13.249C32.1771 13.249 31.7011 13.725 31.7011 14.31C31.7011 14.8951 32.1771 15.371 32.7621 15.371C33.3472 15.371 33.8232 14.895 33.8232 14.31C33.8233 13.725 33.3472 13.249 32.7621 13.249Z" fill="#4B50AC" stroke="white"/>
</svg>
