<svg width="43" height="33" viewBox="0 0 43 33" fill="none" xmlns="http://www.w3.org/2000/svg">
<path d="M38.0351 5.88571H37.1143V4.96491C37.1143 2.79721 35.3508 1.03372 33.1831 1.03372H4.96506C2.79737 1.03372 1.03387 2.79728 1.03387 4.96491V23.4345C1.03387 25.6022 2.79743 27.3657 4.96506 27.3657H5.88586V28.2865C5.88586 30.4542 7.64942 32.2177 9.81705 32.2177H38.035C40.2027 32.2177 41.9663 30.4542 41.9663 28.2865V9.8169C41.9662 7.6492 40.2028 5.88571 38.0351 5.88571ZM39.0695 28.2865C39.0695 28.8578 38.6063 29.321 38.0351 29.321H9.81705C9.24569 29.321 8.78252 28.8578 8.78252 28.2865V27.3657V25.9173V24.469V9.8169C8.78252 9.24547 9.24569 8.78237 9.81705 8.78237H34.2176H35.6659H37.1143H38.0351C38.6064 8.78237 39.0696 9.24554 39.0696 9.8169V28.2865H39.0695ZM3.93054 23.4345V4.96491C3.93054 4.39356 4.39371 3.93039 4.96506 3.93039H33.1831C33.7544 3.93039 34.2176 4.39356 34.2176 4.96491V5.88571H9.81705C7.64942 5.88571 5.88586 7.64926 5.88586 9.8169V24.469H4.96513C4.39371 24.469 3.93054 24.0058 3.93054 23.4345Z" fill="#4B50AC" stroke="white"/>
<path d="M38.0349 32.2515H9.81691C7.63062 32.2515 5.85192 30.4728 5.85192 28.2865V27.3996H4.965C2.7787 27.3996 1 25.6209 1 23.4346V4.965C1 2.77871 2.7787 1 4.965 1H33.1831C35.3693 1 37.148 2.77871 37.148 4.965V5.85198H38.0351C40.2213 5.85198 42 7.63069 42 9.81698V28.2865C41.9999 30.4728 40.2213 32.2515 38.0349 32.2515ZM4.965 1.06755C2.81596 1.06755 1.06762 2.81596 1.06762 4.965V23.4346C1.06762 25.5836 2.81596 27.332 4.965 27.332H5.9196V28.2866C5.9196 30.4356 7.66794 32.184 9.81698 32.184H38.0349C40.184 32.184 41.9324 30.4356 41.9324 28.2866V9.81698C41.9324 7.66795 40.1841 5.9196 38.0351 5.9196H37.0804V4.965C37.0804 2.81596 35.3321 1.06762 33.1831 1.06762H4.965V1.06755ZM38.0351 29.3549H9.81698C9.22791 29.3549 8.74865 28.8756 8.74865 28.2865V9.81698C8.74865 9.22791 9.22791 8.74865 9.81698 8.74865H38.0351C38.6241 8.74865 39.1033 9.22791 39.1033 9.81698V28.2865C39.1033 28.8756 38.6241 29.3549 38.0351 29.3549ZM9.81698 8.81627C9.26517 8.81627 8.81627 9.26524 8.81627 9.81698V28.2865C8.81627 28.8384 9.26517 29.2873 9.81698 29.2873H38.0351C38.5868 29.2873 39.0357 28.8384 39.0357 28.2865V9.81698C39.0357 9.26517 38.5868 8.81627 38.0351 8.81627H9.81698ZM5.9196 24.5029H4.96507C4.376 24.5029 3.89667 24.0236 3.89667 23.4346V4.965C3.89667 4.37593 4.37593 3.89667 4.965 3.89667H33.1831C33.7722 3.89667 34.2514 4.37593 34.2514 4.965V5.9196H9.81698C7.66794 5.9196 5.9196 7.66795 5.9196 9.81698V24.5029ZM4.965 3.96421C4.41318 3.96421 3.96428 4.41312 3.96428 4.96493V23.4346C3.96428 23.9863 4.41325 24.4353 4.96507 24.4353H5.85205V9.81698C5.85205 7.63069 7.63076 5.85198 9.81705 5.85198H34.1838V4.965C34.1838 4.41318 33.7349 3.96428 33.1832 3.96428H4.965V3.96421Z" fill="#4B50AC" stroke="white"/>
<path d="M23.5 22.2383C24.9247 22.2383 26.0796 21.0834 26.0796 19.6587C26.0796 18.234 24.9247 17.0791 23.5 17.0791C22.0753 17.0791 20.9204 18.234 20.9204 19.6587C20.9204 21.0834 22.0753 22.2383 23.5 22.2383Z" stroke="#4B50AC" stroke-width="2" stroke-linecap="round" stroke-linejoin="round"/>
<path d="M27.0063 14.9452L25.9969 13H21.0031L19.9938 14.9452H15V26H32V14.9452H27.0063Z" stroke="#4B50AC" stroke-width="2" stroke-linecap="round" stroke-linejoin="round"/>
</svg>
