<svg width="40" height="40" viewBox="0 0 40 40" fill="none" xmlns="http://www.w3.org/2000/svg">
<path fill-rule="evenodd" clip-rule="evenodd" d="M36.1111 3.33333H3.88889C3.74155 3.33333 3.60024 3.39186 3.49605 3.49605C3.39186 3.60024 3.33333 3.74155 3.33333 3.88889V36.1111C3.33333 36.4178 3.58222 36.6667 3.88889 36.6667H4.31111L26.14 14.8378C26.5011 14.4766 26.9298 14.1901 27.4017 13.9947C27.8735 13.7992 28.3793 13.6986 28.89 13.6986C29.4007 13.6986 29.9065 13.7992 30.3783 13.9947C30.8502 14.1901 31.2789 14.4766 31.64 14.8378L36.6667 19.8644V3.88889C36.6667 3.74155 36.6081 3.60024 36.504 3.49605C36.3998 3.39186 36.2585 3.33333 36.1111 3.33333ZM36.6667 24.5778L29.2822 17.1933C29.2306 17.1416 29.1693 17.1005 29.1018 17.0725C29.0343 17.0445 28.962 17.0301 28.8889 17.0301C28.8158 17.0301 28.7435 17.0445 28.676 17.0725C28.6085 17.1005 28.5472 17.1416 28.4956 17.1933L9.02444 36.6667H36.1111C36.2585 36.6667 36.3998 36.6081 36.504 36.504C36.6081 36.3998 36.6667 36.2585 36.6667 36.1111V24.5778ZM3.88889 0C2.85749 0 1.86834 0.409721 1.13903 1.13903C0.409721 1.86834 0 2.85749 0 3.88889V36.1111C0 38.2578 1.74222 40 3.88889 40H36.1111C37.1425 40 38.1317 39.5903 38.861 38.861C39.5903 38.1317 40 37.1425 40 36.1111V3.88889C40 2.85749 39.5903 1.86834 38.861 1.13903C38.1317 0.409721 37.1425 0 36.1111 0H3.88889ZM12.2222 14.4444C12.8116 14.4444 13.3768 14.2103 13.7936 13.7936C14.2103 13.3768 14.4444 12.8116 14.4444 12.2222C14.4444 11.6329 14.2103 11.0676 13.7936 10.6509C13.3768 10.2341 12.8116 10 12.2222 10C11.6329 10 11.0676 10.2341 10.6509 10.6509C10.2341 11.0676 10 11.6329 10 12.2222C10 12.8116 10.2341 13.3768 10.6509 13.7936C11.0676 14.2103 11.6329 14.4444 12.2222 14.4444ZM12.2222 17.7778C13.6956 17.7778 15.1087 17.1925 16.1506 16.1506C17.1925 15.1087 17.7778 13.6956 17.7778 12.2222C17.7778 10.7488 17.1925 9.33572 16.1506 8.29385C15.1087 7.25198 13.6956 6.66667 12.2222 6.66667C10.7488 6.66667 9.33572 7.25198 8.29385 8.29385C7.25198 9.33572 6.66667 10.7488 6.66667 12.2222C6.66667 13.6956 7.25198 15.1087 8.29385 16.1506C9.33572 17.1925 10.7488 17.7778 12.2222 17.7778Z" fill="#4B50AC"/>
</svg>
