<svg width="43" height="34" viewBox="0 0 43 34" fill="none" xmlns="http://www.w3.org/2000/svg">
<path d="M38.0351 6.17242H37.1143V5.25163C37.1143 3.08393 35.3508 1.32043 33.1831 1.32043H4.96505C2.79735 1.32043 1.03386 3.08399 1.03386 5.25163V23.7213C1.03386 25.8889 2.79742 27.6524 4.96505 27.6524H5.88584V28.5732C5.88584 30.7409 7.6494 32.5044 9.81703 32.5044H38.035C40.2027 32.5044 41.9662 30.7409 41.9662 28.5732V10.1036C41.9662 7.93591 40.2027 6.17242 38.0351 6.17242ZM39.0695 28.5732C39.0695 29.1445 38.6063 29.6077 38.035 29.6077H9.81703C9.24568 29.6077 8.78251 29.1445 8.78251 28.5732V27.6524V26.204V24.7557V10.1036C8.78251 9.53219 9.24568 9.06908 9.81703 9.06908H34.2176H35.6659H37.1143H38.0351C38.6064 9.06908 39.0696 9.53225 39.0696 10.1036V28.5732H39.0695ZM3.93053 23.7212V5.25163C3.93053 4.68027 4.39369 4.2171 4.96505 4.2171H33.1831C33.7544 4.2171 34.2176 4.68027 34.2176 5.25163V6.17242H9.81703C7.6494 6.17242 5.88584 7.93598 5.88584 10.1036V24.7557H4.96512C4.39369 24.7557 3.93053 24.2925 3.93053 23.7212Z" fill="#4B50AC" stroke="white"/>
<path d="M38.0349 32.5383H9.81691C7.63062 32.5383 5.85192 30.7595 5.85192 28.5733V27.6863H4.965C2.7787 27.6863 1 25.9076 1 23.7213V5.25171C1 3.06542 2.7787 1.28671 4.965 1.28671H33.1831C35.3693 1.28671 37.148 3.06542 37.148 5.25171V6.1387H38.0351C40.2213 6.1387 42 7.9174 42 10.1037V28.5733C41.9999 30.7595 40.2213 32.5383 38.0349 32.5383ZM4.965 1.35426C2.81596 1.35426 1.06762 3.10267 1.06762 5.25171V23.7213C1.06762 25.8703 2.81596 27.6187 4.965 27.6187H5.9196V28.5733C5.9196 30.7223 7.66794 32.4707 9.81698 32.4707H38.0349C40.184 32.4707 41.9324 30.7224 41.9324 28.5733V10.1037C41.9324 7.95466 40.1841 6.20631 38.0351 6.20631H37.0804V5.25171C37.0804 3.10267 35.3321 1.35433 33.1831 1.35433H4.965V1.35426ZM38.0351 29.6416H9.81698C9.22791 29.6416 8.74865 29.1623 8.74865 28.5733V10.1037C8.74865 9.51462 9.22791 9.03536 9.81698 9.03536H38.0351C38.6241 9.03536 39.1033 9.51462 39.1033 10.1037V28.5733C39.1033 29.1623 38.6241 29.6416 38.0351 29.6416ZM9.81698 9.10298C9.26517 9.10298 8.81627 9.55195 8.81627 10.1037V28.5733C8.81627 29.1251 9.26517 29.574 9.81698 29.574H38.0351C38.5868 29.574 39.0357 29.1251 39.0357 28.5733V10.1037C39.0357 9.55188 38.5868 9.10298 38.0351 9.10298H9.81698ZM5.9196 24.7896H4.96507C4.376 24.7896 3.89667 24.3103 3.89667 23.7213V5.25171C3.89667 4.66264 4.37593 4.18338 4.965 4.18338H33.1831C33.7722 4.18338 34.2514 4.66264 34.2514 5.25171V6.20631H9.81698C7.66794 6.20631 5.9196 7.95466 5.9196 10.1037V24.7896ZM4.965 4.25093C4.41318 4.25093 3.96428 4.69983 3.96428 5.25164V23.7213C3.96428 24.273 4.41325 24.722 4.96507 24.722H5.85205V10.1037C5.85205 7.9174 7.63076 6.1387 9.81705 6.1387H34.1838V5.25171C34.1838 4.6999 33.7349 4.251 33.1832 4.251H4.965V4.25093Z" fill="#4B50AC" stroke="white"/>
<path d="M23.5 19.5705C26.1244 19.5705 28.25 17.4291 28.25 14.7853C28.25 12.1415 26.1244 10.0001 23.5 10.0001C20.8756 10.0001 18.75 12.1415 18.75 14.7853C18.75 17.4291 20.8756 19.5705 23.5 19.5705Z" fill="#4B50AC"/>
<path d="M19.7415 21.271C20.0068 21.2058 20.279 21.3392 20.3995 21.5861L22.5444 23.1696C23.5 23.1694 23.5 23.1696 24.4555 23.1694L26.6005 21.5861C26.721 21.3392 26.9932 21.2058 27.2585 21.271C30.1107 21.9719 33 23.4011 33 25.551V27.9437H14V25.551C14 23.4011 16.8893 21.9719 19.7415 21.271Z" fill="#4B50AC"/>
</svg>
