<svg width="40" height="40" viewBox="0 0 40 40" fill="none" xmlns="http://www.w3.org/2000/svg">
<path fill-rule="evenodd" clip-rule="evenodd" d="M36.1111 3.33333H3.88889C3.74155 3.33333 3.60024 3.39186 3.49605 3.49605C3.39186 3.60024 3.33333 3.74155 3.33333 3.88889V36.1111C3.33333 36.4178 3.58222 36.6667 3.88889 36.6667H4.31111H23.5H26.14H36.1111L36.3889 36.3889L36.6667 36.1111V19.8644V3.88889C36.6667 3.74155 36.6081 3.60024 36.504 3.49605C36.3998 3.39186 36.2585 3.33333 36.1111 3.33333ZM3.88889 0C2.85749 0 1.86834 0.409721 1.13903 1.13903C0.409721 1.86834 0 2.85749 0 3.88889V36.1111C0 38.2578 1.74222 40 3.88889 40H36.1111C37.1425 40 38.1317 39.5903 38.861 38.861C39.5903 38.1317 40 37.1425 40 36.1111V3.88889C40 2.85749 39.5903 1.86834 38.861 1.13903C38.1317 0.409721 37.1425 0 36.1111 0H3.88889Z" fill="#4B50AC"/>
<path d="M11.25 11C9.45507 11 8 12.4551 8 14.25V24.75C8 26.5449 9.45507 28 11.25 28H20.75C22.5449 28 24 26.5449 24 24.75V14.25C24 12.4551 22.5449 11 20.75 11H11.25Z" fill="#4B50AC"/>
<path d="M29.1232 26.1431L25.5 22.5935V16.4989L29.1121 12.8706C29.8988 12.0804 31.248 12.6375 31.248 13.7525V25.2502C31.248 26.3577 29.9143 26.9181 29.1232 26.1431Z" fill="#4B50AC"/>
</svg>
