<svg width="42" height="44" viewBox="0 0 42 44" fill="none" xmlns="http://www.w3.org/2000/svg">
<path d="M34.5711 5.434C34.3844 5.434 34.1977 5.39 34.0343 5.302C29.5534 3.124 25.6793 2.2 21.035 2.2C16.4141 2.2 12.0265 3.234 8.03568 5.302C7.47557 5.588 6.77542 5.39 6.44869 4.862C6.1453 4.334 6.35534 3.652 6.91545 3.366C11.2563 1.144 16.0173 0 21.035 0C26.006 0 30.3469 1.034 35.1079 3.344C35.6913 3.63 35.9014 4.29 35.598 4.818C35.3879 5.214 34.9912 5.434 34.5711 5.434ZM1.17428 16.984C0.940896 16.984 0.707515 16.918 0.497472 16.786C-0.0393041 16.434 -0.155995 15.752 0.217415 15.246C2.52789 12.166 5.46849 9.746 8.96921 8.052C16.2974 4.488 25.6793 4.466 33.0308 8.03C36.5315 9.724 39.4721 12.122 41.7826 15.18C42.156 15.664 42.0393 16.368 41.5025 16.72C40.9658 17.072 40.2423 16.962 39.8689 16.456C37.7684 13.684 35.1079 11.506 31.9572 9.988C25.2592 6.754 16.6941 6.754 10.0194 10.01C6.84544 11.55 4.18489 13.75 2.08446 16.522C1.89776 16.83 1.54769 16.984 1.17428 16.984ZM15.7606 43.538C15.4572 43.538 15.1538 43.428 14.9438 43.208C12.9133 41.294 11.8165 40.062 10.2528 37.4C8.64247 34.694 7.8023 31.394 7.8023 27.852C7.8023 21.318 13.7302 15.994 21.0117 15.994C28.2932 15.994 34.221 21.318 34.221 27.852C34.221 28.468 33.7076 28.952 33.0541 28.952C32.4007 28.952 31.8872 28.468 31.8872 27.852C31.8872 22.528 27.0096 18.194 21.0117 18.194C15.0138 18.194 10.1361 22.528 10.1361 27.852C10.1361 31.02 10.8829 33.946 12.3066 36.322C13.8002 38.852 14.8271 39.93 16.6241 41.646C17.0675 42.086 17.0675 42.768 16.6241 43.208C16.3674 43.428 16.064 43.538 15.7606 43.538ZM32.494 39.468C29.7168 39.468 27.2663 38.808 25.2592 37.51C21.7818 35.288 19.7047 31.68 19.7047 27.852C19.7047 27.236 20.2182 26.752 20.8716 26.752C21.5251 26.752 22.0385 27.236 22.0385 27.852C22.0385 30.954 23.7189 33.88 26.5661 35.684C28.2231 36.74 30.1602 37.246 32.494 37.246C33.0541 37.246 33.9877 37.18 34.9212 37.026C35.5513 36.916 36.1581 37.312 36.2748 37.928C36.3915 38.522 35.9714 39.094 35.3179 39.204C33.9877 39.446 32.8208 39.468 32.494 39.468ZM27.8031 44C27.7097 44 27.593 43.978 27.4997 43.956C23.7889 42.988 21.3617 41.69 18.8179 39.336C15.5506 36.278 13.7535 32.208 13.7535 27.852C13.7535 24.288 16.9742 21.384 20.9417 21.384C24.9091 21.384 28.1298 24.288 28.1298 27.852C28.1298 30.206 30.3002 32.12 32.9841 32.12C35.668 32.12 37.8384 30.206 37.8384 27.852C37.8384 19.558 30.2536 12.826 20.9183 12.826C14.2903 12.826 8.22239 16.302 5.49183 21.692C4.58164 23.474 4.11488 25.564 4.11488 27.852C4.11488 29.568 4.27825 32.274 5.67853 35.794C5.91191 36.366 5.60852 37.004 5.00173 37.202C4.39494 37.422 3.71813 37.114 3.50809 36.564C2.36452 33.682 1.80441 30.822 1.80441 27.852C1.80441 25.212 2.34118 22.814 3.3914 20.724C6.49537 14.586 13.3801 10.604 20.9183 10.604C31.5372 10.604 40.1723 18.326 40.1723 27.83C40.1723 31.394 36.9516 34.298 32.9841 34.298C29.0166 34.298 25.796 31.394 25.796 27.83C25.796 25.476 23.6255 23.562 20.9417 23.562C18.2578 23.562 16.0873 25.476 16.0873 27.83C16.0873 31.592 17.6276 35.112 20.4516 37.752C22.6687 39.82 24.7924 40.964 28.0831 41.822C28.7132 41.976 29.0633 42.592 28.9 43.164C28.7833 43.67 28.2932 44 27.8031 44Z" fill="#4B50AC"/>
</svg>
